<svg id="Layer_1" data-name="Layer 1" xmlns="http://www.w3.org/2000/svg" viewBox="0 0 1000 1000"><defs><style>.cls-1{fill:#00c38e;}.cls-2{fill:#fff;}</style></defs><rect class="cls-1" width="1000" height="1000"/><path class="cls-2" d="M697.58,432.71s-.94,16.92-10.56,43.87c-.07.17-.13.36-.19.52-1.14,3.17-2.39,6.47-3.79,9.88-2.47,6.14-5.38,12.69-8.81,19.57q-.84,1.74-1.77,3.51c-1.14,2.27-2.35,4.56-3.62,6.89l-.25.43q-5.36,9.82-12.1,20.36c-2.2,3.43-4.51,6.89-7,10.4-28.67,41.22-74.42,88.34-147.35,132.32-71.47-43.11-116.85-89.25-145.63-129.87q-3.74-5.26-7.09-10.39-7.67-11.7-13.58-22.59-2.4-4.4-4.55-8.61c-3.47-6.86-6.47-13.41-9-19.56Q320,484,318.2,479c-.25-.65-.48-1.29-.71-1.94-9.79-27.24-10.73-44.39-10.73-44.39,0-53.78,43.75-97.36,97.69-97.36s97.72,43.58,97.72,97.36c0-53.78,43.75-97.36,97.69-97.36S697.58,378.93,697.58,432.71Z"/><rect class="cls-2" x="635.32" y="506.55" width="148.16" height="10.4"/><path class="cls-2" d="M812.08,512.39c0,7.55-6.43,13.64-14.37,13.64-7.28,0-13.31-5.13-14.23-11.83a11.64,11.64,0,0,1,0-3.6c.92-6.69,6.95-11.85,14.23-11.85C805.65,498.75,812.08,504.87,812.08,512.39Z"/><rect class="cls-2" x="606.21" y="537.74" width="87.07" height="10.4"/><polygon class="cls-2" points="703.69 585.26 703.69 585.82 693.3 585.82 693.3 537.74 703.67 537.74 703.69 585.26"/><rect class="cls-2" x="654.04" y="476.58" width="87.09" height="10.4"/><polygon class="cls-2" points="751.52 487.04 741.13 487.04 741.13 438.97 751.5 438.97 751.52 487.04"/><path class="cls-2" d="M713,598c0,7.54-6.45,13.66-14.37,13.66s-14.37-6.12-14.37-13.66a13.68,13.68,0,0,1,9.09-12.69,14.78,14.78,0,0,1,5.28-1,15,15,0,0,1,5.11.9A13.68,13.68,0,0,1,713,598Z"/><path class="cls-2" d="M760.78,425.78A13.8,13.8,0,0,1,750.07,439a14.23,14.23,0,0,1-3.66.45,15.26,15.26,0,0,1-3.68-.45A13.77,13.77,0,0,1,732,425.78c0-7.53,6.42-13.64,14.37-13.64S760.78,418.25,760.78,425.78Z"/><rect class="cls-2" x="224.52" y="509" width="111.36" height="10.4"/><polygon class="cls-1" points="672.75 510.02 669.07 516.95 668.59 517.84 668.59 510.69 672.46 510.06 672.75 510.02"/><rect class="cls-2" x="314.72" y="540.2" width="87.07" height="10.4"/><path class="cls-2" d="M224.66,514.85a10.79,10.79,0,0,1-.14,1.81,14,14,0,0,1-12.42,11.72H212a2.88,2.88,0,0,1-.65.07c-.35,0-.7,0-1.06,0-7.92,0-14.37-6.09-14.37-13.64s6.45-13.64,14.37-13.64c7.3,0,13.33,5.15,14.23,11.85A10.55,10.55,0,0,1,224.66,514.85Z"/><rect class="cls-2" x="266.9" y="479.04" width="87.07" height="10.4"/><rect class="cls-2" x="304.33" y="540.2" width="10.4" height="48.08"/><rect class="cls-2" x="256.5" y="441.42" width="10.4" height="48.08"/><path class="cls-2" d="M323.79,600.46c0,7.55-6.42,13.66-14.35,13.66s-14.37-6.11-14.37-13.66a13.7,13.7,0,0,1,9.26-12.75,14.79,14.79,0,0,1,5.11-.89,14.57,14.57,0,0,1,5.28,1A13.66,13.66,0,0,1,323.79,600.46Z"/><path class="cls-2" d="M276,428.24a13.74,13.74,0,0,1-10.69,13.18,14.17,14.17,0,0,1-3.66.46,15.39,15.39,0,0,1-3.68-.46,13.77,13.77,0,0,1-10.69-13.18c0-7.53,6.43-13.65,14.37-13.65S276,420.71,276,428.24Z"/><polygon class="cls-1" points="266.9 489.46 266.9 489.5 256.5 489.5 266.9 489.46"/><polygon class="cls-1" points="341.91 528.16 347.32 514.2 361.08 513.24 370.86 479.04 390.43 523.51 404.19 523.82 407.25 535.43 419.17 513.24 508.75 512.81 528.62 448.61 550.94 579.15 577.54 403.36 612.7 545.39 629.51 510.02 672.46 510.06 668.59 517.84 635.32 519.4 609.95 572.43 579.68 449.22 551.25 627.46 526.79 476.58 513.95 516.95 422.84 516.95 405.11 548.14 400.52 526.87 387.37 527.79 371.48 492.32 365.05 516.95 350.99 516.26 344.22 531.98 341.91 528.16"/></svg>